Patient4_TMGait_0pt5_01_right_34_GRF.mot
version=1
nRows=71
nColumns=19
inDegrees=no
endheader
time	F1x	F1y	F1z	M1x	M1y	M1z	F2x	F2y	F2z	M2x	M2y	M2z	EC1x	EC1y	EC1z	EC2x	EC2y	EC2z
44.62	-18.7877	781.6796	84.6792	-275.1202	-78.177	687.1389	-15.5953	19.1512	3.9558	4.4807	0.35746	20.5349	-0.0592	0.0182	-0.0073	-0.0462	0.0165	0.9585
44.6332	-12.7087	786.8343	83.9213	-277.279	-75.0698	687.7787	-11.0056	14.5799	2.7694	3.5891	0.37509	15.4264	-0.0592	0.0182	-0.0073	-0.0462	0.0165	0.9585
44.6464	-6.5841	790.8447	83.2254	-278.9719	-71.8782	686.9792	-7.0162	10.6958	1.7078	2.8471	0.38436	11.1084	-0.0592	0.0182	-0.0073	-0.0462	0.0165	0.9585
44.6596	-0.76238	792.7447	82.5714	-279.8329	-68.7212	684.1375	-3.9037	7.7518	0.85366	2.2983	0.3939	7.8477	-0.0592	0.0182	-0.0073	-0.0462	0.0165	0.9585
44.6729	4.5266	791.9643	81.9027	-279.6464	-65.6606	678.9853	-1.71	5.7556	0.24021	1.9402	0.39649	5.6463	-0.0592	0.0182	-0.0073	-0.0462	0.0165	0.9585
44.6861	9.1544	788.3605	81.1518	-278.3619	-62.718	671.5753	-0.31917	4.5495	-0.165	1.7353	0.40331	4.3167	-0.0592	0.0182	-0.0073	-0.0462	0.0165	0.9585
44.6993	13.0419	782.1447	80.305	-276.0639	-59.9401	662.2029	0.4395	3.9044	-0.39396	1.6289	0.40908	3.6062	-0.0592	0.0182	-0.0073	-0.0462	0.0165	0.9585
44.7125	16.185	773.8163	79.3562	-272.9509	-57.3508	651.3421	0.74606	3.5616	-0.50074	1.5548	0.42031	3.2462	-0.0592	0.0182	-0.0073	-0.0462	0.0165	0.9585
44.7257	18.6404	764.0746	78.3203	-269.2988	-54.9643	639.5743	0.78155	3.2402	-0.51442	1.4358	0.41548	2.934	-0.0592	0.0182	-0.0073	-0.0462	0.0165	0.9585
44.7389	20.5082	753.7221	77.2314	-265.4154	-52.7915	627.5326	0.66933	2.6827	-0.4686	1.1944	0.39126	2.4035	-0.0592	0.0182	-0.0073	-0.0462	0.0165	0.9585
44.7521	21.9062	743.5267	76.1456	-261.5918	-50.8458	615.7867	0.5308	1.6278	-0.37348	0.74946	0.32393	1.3763	-0.0592	0.0182	-0.0073	-0.0462	0.0165	0.9585
44.7654	22.9343	734.1519	75.1248	-258.0738	-49.1444	604.8245	0.42461	-0.12797	-0.2396	0.033936	0.20261	-0.34297	-0.0592	0.0182	-0.0073	-0.0462	0.0165	0.9585
44.7786	23.7057	726.1101	74.21	-255.0495	-47.6807	595.0021	0.40238	-2.7137	-0.068702	-0.99354	0.012136	-2.8769	-0.0592	0.0182	-0.0073	-0.0462	0.0165	0.9585
44.7918	24.3233	719.7293	73.4369	-252.6377	-46.4469	586.5438	0.48787	-6.0971	0.13777	-2.318	-0.25226	-6.1915	-0.0592	0.0182	-0.0073	-0.0462	0.0165	0.9585
44.805	24.9207	715.0986	72.7961	-250.8745	-45.3857	579.4663	0.67709	-10.009	0.37203	-3.8333	-0.57857	-10.027	-0.0592	0.0182	-0.0073	-0.0462	0.0165	0.9585
44.8182	25.6353	712.0416	72.2582	-249.7	-44.4243	573.5978	0.95243	-13.825	0.60835	-5.2949	-0.93194	-13.7737	-0.0592	0.0182	-0.0073	-0.0462	0.0165	0.9585
44.8314	26.5916	710.0553	71.7471	-248.9383	-43.456	568.5488	1.2427	-16.406	0.805	-6.2636	-1.2424	-16.303	-0.0592	0.0182	-0.0073	-0.0462	0.0165	0.9585
44.8446	27.8802	708.2817	71.1914	-248.2829	-42.3946	563.6738	1.4567	-15.9883	0.88367	-6.0572	-1.3933	-15.894	-0.0592	0.0182	-0.0073	-0.0462	0.0165	0.9585
44.8579	29.5326	705.5642	70.4862	-247.3163	-41.147	558.1349	1.4341	-10.0685	0.73105	-3.7117	-1.2115	-10.0815	-0.0592	0.0182	-0.0073	-0.0462	0.0165	0.9585
44.8711	31.5328	700.4974	69.5483	-245.5311	-39.6563	550.9143	0.97258	4.5375	0.18658	1.9976	-0.45784	4.2715	-0.0592	0.0182	-0.0073	-0.0462	0.0165	0.9585
44.8843	33.7895	691.5831	68.2779	-242.3843	-37.8741	540.9376	-0.19217	31.4792	-0.94017	12.4676	1.16	30.7678	-0.0592	0.0182	-0.0073	-0.0462	0.0165	0.9585
44.8975	36.136	677.3107	66.6039	-237.3335	-35.798	527.1268	-2.3685	74.3081	-2.8625	29.0474	3.974	72.9185	-0.0592	0.0182	-0.0073	-0.0462	0.0165	0.9585
44.9107	38.3359	656.2126	64.4518	-229.8603	-33.4469	508.443	-5.8465	135.4308	-5.7654	52.6386	8.2774	133.1024	-0.0592	0.0182	-0.0073	-0.0462	0.0165	0.9585
44.9239	40.0698	626.866	61.7658	-219.473	-30.8884	483.8628	-10.9808	214.6556	-9.7457	83.1326	14.2919	211.1463	-0.0592	0.0182	-0.0073	-0.0462	0.0165	0.9585
44.9371	40.9447	588.0265	58.4581	-205.757	-28.195	452.4706	-18.3736	307.3322	-14.7233	118.6973	22.1527	302.4493	-0.0592	0.0182	-0.0073	-0.0462	0.0165	0.9585
44.9504	40.5469	539.0641	54.451	-188.521	-25.4523	413.7984	-28.4391	403.1911	-20.7695	155.3432	32.0135	396.8463	-0.0592	0.0182	-0.0073	-0.0462	0.0165	0.9585
44.9636	38.5486	480.5045	49.744	-167.9736	-22.7752	368.2066	-39.9134	491.2246	-28.1383	188.8152	43.5749	483.2925	-0.0592	0.0182	-0.0073	-0.0462	0.0165	0.9585
44.9768	34.7577	414.3968	44.4219	-144.8244	-20.2852	317.2244	-50.975	566.0174	-36.0509	217.0413	55.3545	556.1922	-0.0592	0.0182	-0.0073	-0.0462	0.0165	0.9585
44.99	29.3086	343.938	38.7111	-120.17	-18.0987	263.2128	-59.9018	626.8009	-43.7257	239.7858	65.9446	614.5288	-0.0592	0.0182	-0.0073	-0.0462	0.0165	0.9585
45.0032	22.6218	273.095	32.789	-95.3796	-16.1858	209.1175	-65.6809	674.8139	-50.2056	257.6099	74.0529	659.4175	-0.0592	0.0182	-0.0073	-0.0462	0.0165	0.9585
45.0164	15.3861	206.0067	26.8455	-71.8965	-14.4401	157.9899	-68.0214	711.3353	-55.1386	271.0701	79.2671	692.1553	-0.0592	0.0182	-0.0073	-0.0462	0.0165	0.9585
45.0296	8.4588	146.3288	21.083	-51.003	-12.6986	112.5373	-67.1401	737.5026	-58.3997	280.6343	81.6045	713.9799	-0.0592	0.0182	-0.0073	-0.0462	0.0165	0.9585
45.0429	2.6892	96.5248	15.7418	-33.5701	-10.8327	74.5665	-63.6404	754.4948	-60.3537	286.7472	81.684	726.2748	-0.0592	0.0182	-0.0073	-0.0462	0.0165	0.9585
45.0561	-1.3507	57.5935	11.0042	-19.9552	-8.771	44.8071	-58.2325	763.5447	-61.2844	289.8714	80.0894	730.4571	-0.0592	0.0182	-0.0073	-0.0462	0.0165	0.9585
45.0693	-3.5273	29.2309	7.015	-10.053	-6.5776	23.0469	-51.8021	766.015	-61.5841	290.4984	77.5471	728.1386	-0.0592	0.0182	-0.0073	-0.0462	0.0165	0.9585
45.0825	-4.1745	10.2638	3.8617	-3.4508	-4.4432	8.4011	-45.1471	763.3788	-61.4342	289.1725	74.5525	720.9683	-0.0592	0.0182	-0.0073	-0.0462	0.0165	0.9585
45.0957	-3.9133	-0.99803	1.6274	0.45368	-2.6637	-0.35542	-38.9534	757.286	-60.9591	286.5102	71.4877	710.7319	-0.0592	0.0182	-0.0073	-0.0462	0.0165	0.9585
45.1089	-3.1866	-6.5457	0.198	2.3585	-1.3196	-4.7221	-33.6538	749.4805	-60.1472	283.1715	68.5125	699.2084	-0.0592	0.0182	-0.0073	-0.0462	0.0165	0.9585
45.1221	-2.326	-8.2484	-0.59678	2.9213	-0.40571	-6.1037	-29.4621	741.5941	-59.0782	279.7715	65.7859	687.9911	-0.0592	0.0182	-0.0073	-0.0462	0.0165	0.9585
45.1354	-1.5168	-7.6476	-0.94403	2.6826	0.15347	-5.6932	-26.4674	734.9304	-57.8815	276.7982	63.4519	678.3165	-0.0592	0.0182	-0.0073	-0.0462	0.0165	0.9585
45.1486	-0.84267	-5.9036	-0.99613	2.0487	0.4399	-4.3843	-24.581	730.3707	-56.7201	274.5843	61.6232	670.9395	-0.0592	0.0182	-0.0073	-0.0462	0.0165	0.9585
45.1618	-0.343	-3.7935	-0.89292	1.2919	0.55158	-2.7649	-23.6874	728.5059	-55.7022	273.3506	60.3477	666.348	-0.0592	0.0182	-0.0073	-0.0462	0.0165	0.9585
45.175	0.010605	-1.7922	-0.71171	0.57768	0.55056	-1.2224	-23.6107	729.5655	-54.8526	273.1967	59.571	664.6578	-0.0592	0.0182	-0.0073	-0.0462	0.0165	0.9585
45.1882	0.20887	-0.11967	-0.52365	-0.016368	0.49297	0.089399	-24.191	733.5146	-54.1458	274.1219	59.1928	665.7595	-0.0592	0.0182	-0.0073	-0.0462	0.0165	0.9585
45.2014	0.32035	1.1315	-0.34962	-0.45919	0.4116	1.0759	-25.2218	740.068	-53.5043	276.0315	59.0472	669.3022	-0.0592	0.0182	-0.0073	-0.0462	0.0165	0.9585
45.2146	0.36161	1.996	-0.21476	-0.76172	0.33691	1.7811	-26.5065	748.6972	-52.8861	278.7307	59.0024	674.7266	-0.0592	0.0182	-0.0073	-0.0462	0.0165	0.9585
45.2279	0.3689	2.5459	-0.11008	-0.94977	0.26919	2.2435	-27.8914	758.6644	-52.2411	281.9385	58.9355	681.3125	-0.0592	0.0182	-0.0073	-0.0462	0.0165	0.9585
45.2411	0.36117	2.8594	-0.040158	-1.0546	0.21805	2.5134	-29.2463	769.1017	-51.5762	285.3154	58.7977	688.2529	-0.0592	0.0182	-0.0073	-0.0462	0.0165	0.9585
45.2543	0.33888	3.0213	0.0068166	-1.1068	0.17325	2.6692	-30.481	779.117	-50.8986	288.5085	58.5542	694.7527	-0.0592	0.0182	-0.0073	-0.0462	0.0165	0.9585
45.2675	0.32778	3.0891	0.033007	-1.1271	0.13994	2.7339	-31.5002	787.8506	-50.2786	291.1838	58.2259	700.043	-0.0592	0.0182	-0.0073	-0.0462	0.0165	0.9585
45.2807	0.29393	3.118	0.049481	-1.1317	0.10235	2.769	-32.2185	794.5916	-49.7652	293.071	57.8143	703.5004	-0.0592	0.0182	-0.0073	-0.0462	0.0165	0.9585
45.2939	0.26346	3.1168	0.056721	-1.1259	0.06919	2.7523	-32.5446	798.8407	-49.4328	293.9877	57.3534	704.6876	-0.0592	0.0182	-0.0073	-0.0462	0.0165	0.9585
45.3071	0.21064	3.0933	0.06533	-1.111	0.027	2.7028	-32.4381	800.3731	-49.294	293.8617	56.8472	703.4141	-0.0592	0.0182	-0.0073	-0.0462	0.0165	0.9585
45.3204	0.14214	3.0143	0.070358	-1.0771	-0.01619	2.5844	-31.901	799.2469	-49.3691	292.7284	56.33	699.7341	-0.0592	0.0182	-0.0073	-0.0462	0.0165	0.9585
45.3336	0.053968	2.8324	0.077034	-1.0067	-0.065805	2.3586	-30.9583	795.7828	-49.6205	290.7244	55.7939	693.9307	-0.0592	0.0182	-0.0073	-0.0462	0.0165	0.9585
45.3468	-0.06136	2.4965	0.076294	-0.88076	-0.1139	1.9967	-29.6608	790.4792	-50.0179	288.0516	55.2461	686.4467	-0.0592	0.0182	-0.0073	-0.0462	0.0165	0.9585
45.36	-0.17661	1.928	0.07793	-0.67294	-0.16263	1.4141	-28.0538	783.8889	-50.4994	284.9331	54.6616	677.7555	-0.0592	0.0182	-0.0073	-0.0462	0.0165	0.9585
45.3732	-0.30662	1.0732	0.070411	-0.36155	-0.20607	0.57853	-26.1659	776.5901	-51.0231	281.5954	54.0272	668.349	-0.0592	0.0182	-0.0073	-0.0462	0.0165	0.9585
45.3864	-0.41519	-0.1269	0.053897	0.073928	-0.23267	-0.57619	-24.0082	769.1252	-51.5318	278.2497	53.3051	658.6691	-0.0592	0.0182	-0.0073	-0.0462	0.0165	0.9585
45.3996	-0.48441	-1.6528	0.021433	0.63022	-0.22652	-2.0185	-21.5988	761.9878	-52.0102	275.086	52.4916	649.1187	-0.0592	0.0182	-0.0073	-0.0462	0.0165	0.9585
45.4129	-0.45116	-3.4016	-0.028101	1.2702	-0.16632	-3.6604	-18.9355	755.6062	-52.4274	272.2683	51.5603	640.0483	-0.0592	0.0182	-0.0073	-0.0462	0.0165	0.9585
45.4261	-0.239	-5.1169	-0.086831	1.8996	-0.034718	-5.2652	-16.0328	750.2987	-52.7778	269.9163	50.5084	631.7347	-0.0592	0.0182	-0.0073	-0.0462	0.0165	0.9585
45.4393	0.24083	-6.309	-0.15161	2.3388	0.19982	-6.3678	-12.8993	746.1727	-53.045	268.0721	49.3162	624.2736	-0.0592	0.0182	-0.0073	-0.0462	0.0165	0.9585
45.4525	1.1178	-6.2293	-0.20112	2.3102	0.56329	-6.2708	-9.5448	743.0753	-53.2332	266.6779	47.9798	617.5543	-0.0592	0.0182	-0.0073	-0.0462	0.0165	0.9585
45.4657	2.4846	-3.8	-0.22618	1.4124	1.0807	-3.9395	-5.9734	740.5588	-53.3381	265.5652	46.4858	611.2276	-0.0592	0.0182	-0.0073	-0.0462	0.0165	0.9585
45.4789	4.4244	2.3376	-0.19355	-0.86447	1.7483	1.9054	-2.1877	737.9268	-53.3613	264.4758	44.8302	604.7418	-0.0592	0.0182	-0.0073	-0.0462	0.0165	0.9585
45.4921	6.9072	13.768	-0.078575	-5.1111	2.5289	12.7751	1.788	734.3681	-53.2697	263.1087	42.9876	597.4769	-0.0592	0.0182	-0.0073	-0.0462	0.0165	0.9585
45.5054	9.7596	32.0354	0.16344	-11.9052	3.3116	30.131	5.899	729.0476	-53.0079	261.1556	40.9322	588.8101	-0.0592	0.0182	-0.0073	-0.0462	0.0165	0.9585
45.5186	12.559	58.2323	0.57299	-21.6561	3.8979	55.0097	9.9869	721.1799	-52.4882	258.3229	38.6568	578.2145	-0.0592	0.0182	-0.0073	-0.0462	0.0165	0.9585
45.5318	14.518	92.3228	1.1854	-34.3516	3.9655	87.3868	13.8274	710.0314	-51.6237	254.333	36.1899	565.2292	-0.0592	0.0182	-0.0073	-0.0462	0.0165	0.9585
45.545	14.4667	132.1929	2.0202	-49.2085	3.0661	125.2574	17.1232	695.0219	-50.341	248.9569	33.5994	549.5519	-0.0592	0.0182	-0.0073	-0.0462	0.0165	0.9585
